<svg width="17" height="13" viewBox="0 0 17 13" fill="none" xmlns="http://www.w3.org/2000/svg">
<path d="M16.8513 2.01349L6.50982 12.3549C6.41823 12.4473 6.29355 12.4992 6.16348 12.4992C6.03341 12.4992 5.90873 12.4473 5.81714 12.3549L0.558599 7.09638C0.466248 7.00487 0.414307 6.88019 0.414307 6.75004C0.414307 6.61999 0.466248 6.49531 0.558599 6.4037L1.24153 5.72077C1.33312 5.62848 1.4578 5.57648 1.58787 5.57648C1.71794 5.57648 1.84262 5.62848 1.93421 5.72077L6.1586 9.94516L15.4757 0.628127C15.6686 0.441015 15.9754 0.441015 16.1684 0.628127L16.8513 1.32081C16.9437 1.4124 16.9956 1.53708 16.9956 1.66715C16.9956 1.79722 16.9437 1.92189 16.8513 2.01349Z" fill="#3D3A41"/>
</svg>
