<svg width="160" height="32" fill="none" xmlns="http://www.w3.org/2000/svg"><g clip-path="url(#a)"><path d="M48.07 24.24V7.95h3.07v13.5h7.45v2.79H48.07ZM65.22 24.56a6.73 6.73 0 0 1-3.1-.7 5.23 5.23 0 0 1-2.16-2.02 6.11 6.11 0 0 1-.79-3.19v-.37c0-1.24.27-2.3.8-3.19a5.23 5.23 0 0 1 2.16-2.02c.91-.47 1.94-.7 3.1-.7 1.14 0 2.17.23 3.09.7a5.24 5.24 0 0 1 2.16 2.02c.53.89.8 1.95.8 3.2v.36c0 1.24-.27 2.3-.8 3.2a5.23 5.23 0 0 1-2.16 2.02c-.92.46-1.95.7-3.1.7Zm0-2.6c.9 0 1.65-.29 2.24-.86.58-.6.88-1.43.88-2.52v-.23c0-1.08-.3-1.91-.88-2.49a2.98 2.98 0 0 0-2.24-.88c-.9 0-1.64.3-2.23.88-.6.58-.89 1.4-.89 2.5v.22c0 1.09.3 1.93.89 2.52.59.57 1.33.86 2.23.86ZM72.37 18.51v-.37c0-1.2.24-2.24.72-3.1a5.17 5.17 0 0 1 4.54-2.68c1.06.01 1.85.2 2.4.57.54.37.94.76 1.18 1.16h.42v-1.4h2.89v13.6c0 .79-.23 1.41-.7 1.88-.47.48-1.09.72-1.86.72h-7.73v-2.56h6.7c.44 0 .66-.23.66-.7v-3h-.42a4 4 0 0 1-.65.77c-.28.25-.66.46-1.12.63a5.2 5.2 0 0 1-1.77.25c-.95 0-1.82-.22-2.63-.67a5.2 5.2 0 0 1-1.9-1.98 6.34 6.34 0 0 1-.73-3.12Zm6.1 3.21c.9 0 1.65-.28 2.26-.86.6-.57.9-1.38.9-2.42v-.23c0-1.05-.3-1.86-.9-2.42a3.1 3.1 0 0 0-2.26-.86c-.9 0-1.65.29-2.26.86-.6.56-.9 1.37-.9 2.42v.23c0 1.04.3 1.85.9 2.42.6.58 1.36.87 2.26.87ZM92.21 24.56a6.73 6.73 0 0 1-3.1-.7 5.23 5.23 0 0 1-2.16-2.02 6.11 6.11 0 0 1-.79-3.19v-.37c0-1.24.27-2.3.8-3.19a5.24 5.24 0 0 1 2.16-2.02c.91-.47 1.95-.7 3.1-.7 1.14 0 2.17.23 3.09.7a5.24 5.24 0 0 1 2.16 2.02c.53.89.8 1.95.8 3.2v.36c0 1.24-.27 2.3-.8 3.2a5.23 5.23 0 0 1-2.16 2.02c-.92.46-1.95.7-3.1.7Zm0-2.6c.9 0 1.65-.29 2.24-.86.59-.6.88-1.43.88-2.52v-.23c0-1.08-.3-1.91-.88-2.49a2.98 2.98 0 0 0-2.24-.88c-.9 0-1.64.3-2.23.88-.59.58-.89 1.4-.89 2.5v.22c0 1.09.3 1.93.89 2.52.59.57 1.33.86 2.23.86ZM99.92 24.24V12.7h2.93v11.54h-2.93Zm1.47-12.9c-.53 0-.98-.16-1.35-.5-.36-.35-.54-.8-.54-1.35a1.78 1.78 0 0 1 1.89-1.87c.54 0 1 .18 1.35.52.35.34.53.79.53 1.35 0 .55-.18 1-.53 1.35-.36.34-.8.5-1.35.5ZM105.06 28.9V12.7h2.88v1.4h.42c.26-.46.67-.85 1.23-1.2a4.46 4.46 0 0 1 2.4-.53 5 5 0 0 1 4.49 2.7c.48.88.72 1.95.72 3.21v.37c0 1.26-.24 2.33-.72 3.21a5.1 5.1 0 0 1-1.9 2.03c-.8.45-1.66.67-2.59.67-.7 0-1.29-.08-1.77-.25a3.45 3.45 0 0 1-1.14-.6 4.4 4.4 0 0 1-.67-.8h-.42v5.98h-2.93Zm6.05-6.9a3.1 3.1 0 0 0 2.25-.86c.6-.59.91-1.44.91-2.56v-.23c0-1.12-.3-1.96-.9-2.54a3.1 3.1 0 0 0-2.27-.88c-.9 0-1.65.3-2.25.88-.6.58-.9 1.42-.9 2.54v.23c0 1.12.3 1.97.9 2.56.6.58 1.36.86 2.26.86ZM123.64 24.56c-1.5 0-2.74-.32-3.7-.97a4.02 4.02 0 0 1-1.75-2.8l2.7-.7c.11.55.3.98.54 1.29.26.3.58.53.95.67.4.12.81.19 1.26.19.68 0 1.19-.12 1.51-.35.33-.25.5-.55.5-.91a.9.9 0 0 0-.47-.81c-.32-.2-.81-.37-1.5-.5l-.65-.1c-.8-.16-1.54-.37-2.2-.64a4.12 4.12 0 0 1-1.61-1.14 2.8 2.8 0 0 1-.6-1.86c0-1.15.41-2.02 1.25-2.63a5.42 5.42 0 0 1 3.3-.93c1.3 0 2.36.29 3.22.86a3.97 3.97 0 0 1 1.67 2.26l-2.72.84c-.13-.6-.38-1.01-.77-1.26a2.47 2.47 0 0 0-1.4-.37c-.55 0-.98.1-1.28.3a.88.88 0 0 0-.44.8c0 .36.16.64.47.83.3.17.73.3 1.25.4l.66.11c.86.16 1.65.37 2.35.63.71.25 1.27.61 1.67 1.1.42.46.63 1.1.63 1.9 0 1.21-.44 2.15-1.33 2.82-.87.65-2.04.97-3.51.97ZM134.4 24.42c-.9 0-1.7-.2-2.37-.6a4.3 4.3 0 0 1-1.56-1.72 5.45 5.45 0 0 1-.56-2.52V12.7h2.93v6.65c0 .87.21 1.52.63 1.96.43.43 1.05.65 1.84.65.9 0 1.6-.3 2.1-.89.49-.6.74-1.44.74-2.5V12.7h2.93v11.54h-2.89v-1.51h-.42c-.18.38-.53.76-1.04 1.14-.51.37-1.3.55-2.33.55ZM143.3 24.24V12.7h2.88v1.25h.42c.2-.38.53-.72 1-1a3.4 3.4 0 0 1 1.84-.44c.82 0 1.48.16 1.97.49.5.31.88.72 1.14 1.23h.42c.27-.5.64-.9 1.12-1.23a3.63 3.63 0 0 1 2.05-.49 4 4 0 0 1 1.93.47c.59.3 1.05.75 1.4 1.37.35.6.53 1.37.53 2.3v7.59h-2.93v-7.38c0-.63-.16-1.1-.49-1.42a1.86 1.86 0 0 0-1.37-.49c-.67 0-1.19.22-1.56.66-.36.41-.54 1.02-.54 1.81v6.82h-2.93v-7.38c0-.63-.16-1.1-.49-1.42a1.86 1.86 0 0 0-1.37-.49c-.67 0-1.19.22-1.56.66-.36.41-.53 1.02-.53 1.81v6.82h-2.94Z" fill="#fff"/><path d="M38.78 15.51a15.51 15.51 0 0 0-31.02 0h4.84c1.61 0 2.86-1.34 3.45-2.84a7.76 7.76 0 0 1 14.97 2.84h7.76Z" fill="url(#b)"/><path d="M29.84 21.45c.78-1.88 1.19-3.9 1.19-5.94h7.75a15.51 15.51 0 0 1-19.4 15.02 15.52 15.52 0 0 0 10.46-9.08Z" fill="#FBCF8E"/><path d="M0 15.51a15.51 15.51 0 1 0 31.03 0h-4.85c-1.6 0-2.86 1.35-3.45 2.84a7.7 7.7 0 0 1-4.25 4.33A7.76 7.76 0 0 1 7.76 15.5H0Z" fill="url(#c)"/><path d="M0 15.51A15.51 15.51 0 0 1 19.4.5 15.51 15.51 0 0 0 7.76 15.51H0Z" fill="#73E5E2"/></g><defs><linearGradient id="b" x1="38.78" y1="7.76" x2="7.76" y2="7.76" gradientUnits="userSpaceOnUse"><stop stop-color="#73E5E2"/><stop offset="1" stop-color="#394F87"/></linearGradient><linearGradient id="c" x1="0" y1="23.27" x2="31.03" y2="23.27" gradientUnits="userSpaceOnUse"><stop stop-color="#FBDC8E"/><stop offset="1" stop-color="#FB958E"/></linearGradient><clipPath id="a"><path fill="#fff" d="M0 0h160v32H0z"/></clipPath></defs></svg>